<?xml version="1.0" encoding="UTF-8" standalone="no"?>
<!DOCTYPE svg PUBLIC "-//W3C//DTD SVG 1.1//EN"
 "http://www.w3.org/Graphics/SVG/1.1/DTD/svg11.dtd">
<!-- Generated by graphviz version 2.38.0 (20140413.2041)
 -->
<!-- Title: model Pages: 1 -->
<svg width="2416pt" height="532pt"
 viewBox="0.00 0.00 2760.64 608.20" xmlns="http://www.w3.org/2000/svg" xmlns:xlink="http://www.w3.org/1999/xlink">
<g id="graph0" class="graph" transform="scale(0.875 0.875) rotate(0) translate(4 604.2)">
<title>model</title>
<polygon fill="white" stroke="none" points="-4,4 -4,-604.2 2756.64,-604.2 2756.64,4 -4,4"/>
<g id="clust1" class="cluster"><title>clusterCaptureTheFlag_sm_CourseTraversal</title>
<path fill="none" stroke="black" d="M238.316,-8C238.316,-8 2556.32,-8 2556.32,-8 2562.32,-8 2568.32,-14 2568.32,-20 2568.32,-20 2568.32,-458 2568.32,-458 2568.32,-464 2562.32,-470 2556.32,-470 2556.32,-470 238.316,-470 238.316,-470 232.316,-470 226.316,-464 226.316,-458 226.316,-458 226.316,-20 226.316,-20 226.316,-14 232.316,-8 238.316,-8"/>
<text text-anchor="middle" x="1397.32" y="-453.4" font-family="Times,serif" font-size="14.00">CourseTraversal</text>
</g>
<g id="clust2" class="cluster"><title>clusterCaptureTheFlag_smCourseTraversalOdometryDisplayThread_ControllerThread</title>
<path fill="none" stroke="black" d="M1187.32,-16C1187.32,-16 2548.32,-16 2548.32,-16 2554.32,-16 2560.32,-22 2560.32,-28 2560.32,-28 2560.32,-425.2 2560.32,-425.2 2560.32,-431.2 2554.32,-437.2 2548.32,-437.2 2548.32,-437.2 1187.32,-437.2 1187.32,-437.2 1181.32,-437.2 1175.32,-431.2 1175.32,-425.2 1175.32,-425.2 1175.32,-28 1175.32,-28 1175.32,-22 1181.32,-16 1187.32,-16"/>
<text text-anchor="middle" x="1867.82" y="-420.6" font-family="Times,serif" font-size="14.00">ControllerThread</text>
</g>
<!-- start_CaptureTheFlag_sm -->
<g id="node1" class="node"><title>start_CaptureTheFlag_sm</title>
<g id="a_node1"><a xlink:title="Class CaptureTheFlag, SM sm, State start">
<ellipse fill="black" stroke="black" cx="45.3163" cy="-593" rx="7.2" ry="7.2"/>
</a>
</g>
</g>
<!-- CaptureTheFlag_sm_MainThread -->
<g id="node2" class="node"><title>CaptureTheFlag_sm_MainThread</title>
<g id="a_node2"><a xlink:title="Class CaptureTheFlag, SM sm, State MainThread">
<path fill="none" stroke="black" d="M76.0087,-548.8C76.0087,-548.8 14.6239,-548.8 14.6239,-548.8 8.62388,-548.8 2.62388,-542.8 2.62388,-536.8 2.62388,-536.8 2.62388,-524.8 2.62388,-524.8 2.62388,-518.8 8.62388,-512.8 14.6239,-512.8 14.6239,-512.8 76.0087,-512.8 76.0087,-512.8 82.0087,-512.8 88.0087,-518.8 88.0087,-524.8 88.0087,-524.8 88.0087,-536.8 88.0087,-536.8 88.0087,-542.8 82.0087,-548.8 76.0087,-548.8"/>
<text text-anchor="middle" x="45.3163" y="-526.6" font-family="Times,serif" font-size="14.00">MainThread</text>
</a>
</g>
</g>
<!-- start_CaptureTheFlag_sm&#45;&gt;CaptureTheFlag_sm_MainThread -->
<g id="edge1" class="edge"><title>start_CaptureTheFlag_sm&#45;&gt;CaptureTheFlag_sm_MainThread</title>
<g id="a_edge1"><a xlink:title="start to MainThread">
<path fill="none" stroke="black" d="M45.3163,-585.558C45.3163,-579.187 45.3163,-568.997 45.3163,-559.193"/>
<polygon fill="black" stroke="black" points="48.8164,-558.905 45.3163,-548.905 41.8164,-558.905 48.8164,-558.905"/>
</a>
</g>
</g>
<!-- CaptureTheFlag_sm_WifiReceival -->
<g id="node3" class="node"><title>CaptureTheFlag_sm_WifiReceival</title>
<g id="a_node3"><a xlink:title="Class CaptureTheFlag, SM sm, State WifiReceival&#13;Entry:
 &#160;&#160;intializeParameters(Map data);">
<path fill="none" stroke="black" d="M78.4496,-415.2C78.4496,-415.2 12.183,-415.2 12.183,-415.2 6.18296,-415.2 0.182958,-409.2 0.182958,-403.2 0.182958,-403.2 0.182958,-391.2 0.182958,-391.2 0.182958,-385.2 6.18296,-379.2 12.183,-379.2 12.183,-379.2 78.4496,-379.2 78.4496,-379.2 84.4496,-379.2 90.4496,-385.2 90.4496,-391.2 90.4496,-391.2 90.4496,-403.2 90.4496,-403.2 90.4496,-409.2 84.4496,-415.2 78.4496,-415.2"/>
<text text-anchor="middle" x="45.3163" y="-393" font-family="Times,serif" font-size="14.00">WifiReceival</text>
</a>
</g>
</g>
<!-- CaptureTheFlag_sm_MainThread&#45;&gt;CaptureTheFlag_sm_WifiReceival -->
<g id="edge2" class="edge"><title>CaptureTheFlag_sm_MainThread&#45;&gt;CaptureTheFlag_sm_WifiReceival</title>
<g id="a_edge2"><a xlink:title="From MainThread to WifiReceival on enterMapParamters">
<path fill="none" stroke="black" d="M45.3163,-512.596C45.3163,-490.429 45.3163,-451.637 45.3163,-425.442"/>
<polygon fill="black" stroke="black" points="48.8164,-425.409 45.3163,-415.409 41.8164,-425.409 48.8164,-425.409"/>
</a>
</g>
<text text-anchor="middle" x="100.123" y="-482.2" font-family="Times,serif" font-size="14.00">enterMapParamters</text>
</g>
<!-- CaptureTheFlag_smCourseTraversalOdometerThread_OdometerThread -->
<g id="node5" class="node"><title>CaptureTheFlag_smCourseTraversalOdometerThread_OdometerThread</title>
<g id="a_node5"><a xlink:title="Class CaptureTheFlag, SM sm, State OdometerThread.OdometerThread">
<path fill="none" stroke="black" d="M333.937,-326.4C333.937,-326.4 246.696,-326.4 246.696,-326.4 240.696,-326.4 234.696,-320.4 234.696,-314.4 234.696,-314.4 234.696,-302.4 234.696,-302.4 234.696,-296.4 240.696,-290.4 246.696,-290.4 246.696,-290.4 333.937,-290.4 333.937,-290.4 339.937,-290.4 345.937,-296.4 345.937,-302.4 345.937,-302.4 345.937,-314.4 345.937,-314.4 345.937,-320.4 339.937,-326.4 333.937,-326.4"/>
<text text-anchor="middle" x="290.316" y="-304.2" font-family="Times,serif" font-size="14.00">OdometerThread</text>
</a>
</g>
</g>
<!-- CaptureTheFlag_sm_WifiReceival&#45;&gt;CaptureTheFlag_smCourseTraversalOdometerThread_OdometerThread -->
<g id="edge3" class="edge"><title>CaptureTheFlag_sm_WifiReceival&#45;&gt;CaptureTheFlag_smCourseTraversalOdometerThread_OdometerThread</title>
<g id="a_edge3"><a xlink:title="From WifiReceival to CourseTraversal on buttonPressed&#13;Guard: &#160;[centerButton == buttonPressed()]&#13;Transition Action:
 &#160;&#160;&#160;&#160;startThreads();">
<path fill="none" stroke="black" d="M38.8352,-378.819C35.9068,-367.687 34.6653,-353.645 42.6959,-344.4 65.8026,-317.798 159.155,-310.859 224.386,-309.343"/>
<polygon fill="black" stroke="black" points="216.728,-313.651 226.316,-309.144 216.01,-306.688 216.728,-313.651"/>
</a>
</g>
<text text-anchor="middle" x="227.126" y="-348.6" font-family="Times,serif" font-size="14.00">buttonPressed [centerButton == buttonPressed()] / startThreads();</text>
</g>
<!-- start_CaptureTheFlag_OdometerThread -->
<g id="node4" class="node"><title>start_CaptureTheFlag_OdometerThread</title>
<g id="a_node4"><a xlink:title="Class CaptureTheFlag, SM sm, State OdometerThread.start">
<ellipse fill="black" stroke="black" cx="419.316" cy="-397.2" rx="7.2" ry="7.2"/>
</a>
</g>
</g>
<!-- start_CaptureTheFlag_OdometerThread&#45;&gt;CaptureTheFlag_smCourseTraversalOdometerThread_OdometerThread -->
<g id="edge4" class="edge"><title>start_CaptureTheFlag_OdometerThread&#45;&gt;CaptureTheFlag_smCourseTraversalOdometerThread_OdometerThread</title>
<g id="a_edge4"><a xlink:title="start to OdometerThread.OdometerThread">
<path fill="none" stroke="black" d="M420.75,-389.936C422.798,-379.261 425.206,-357.435 414.316,-344.4 399.89,-327.131 377.655,-318.03 355.975,-313.343"/>
<polygon fill="black" stroke="black" points="356.558,-309.891 346.084,-311.487 355.267,-316.771 356.558,-309.891"/>
</a>
</g>
</g>
<!-- CaptureTheFlag_smCourseTraversalOdometerThread_OdometerThread&#45;&gt;CaptureTheFlag_smCourseTraversalOdometerThread_OdometerThread -->
<g id="edge5" class="edge"><title>CaptureTheFlag_smCourseTraversalOdometerThread_OdometerThread&#45;&gt;CaptureTheFlag_smCourseTraversalOdometerThread_OdometerThread</title>
<g id="a_edge5"><a xlink:title="From OdometerThread.OdometerThread to OdometerThread.OdometerThread on clock&#13;Transition Action:
 &#160;&#160;&#160;&#160;doOdometry();">
<path fill="none" stroke="black" d="M346.001,-316.255C356.618,-315.315 364.126,-312.697 364.126,-308.4 364.126,-305.647 361.045,-303.583 356.039,-302.208"/>
<polygon fill="black" stroke="black" points="356.438,-298.727 346.001,-300.545 355.294,-305.633 356.438,-298.727"/>
</a>
</g>
<text text-anchor="middle" x="426.719" y="-304.2" font-family="Times,serif" font-size="14.00">clock / doOdometry();</text>
</g>
<!-- start_CaptureTheFlag_OdometryCorrectionThread -->
<g id="node6" class="node"><title>start_CaptureTheFlag_OdometryCorrectionThread</title>
<g id="a_node6"><a xlink:title="Class CaptureTheFlag, SM sm, State OdometryCorrectionThread.start">
<ellipse fill="black" stroke="black" cx="767.316" cy="-397.2" rx="7.2" ry="7.2"/>
</a>
</g>
</g>
<!-- CaptureTheFlag_smCourseTraversalOdometryCorrectionThread_OdometryCorrectionThread -->
<g id="node7" class="node"><title>CaptureTheFlag_smCourseTraversalOdometryCorrectionThread_OdometryCorrectionThread</title>
<g id="a_node7"><a xlink:title="Class CaptureTheFlag, SM sm, State OdometryCorrectionThread.OdometryCorrectionThread">
<path fill="none" stroke="black" d="M841.59,-326.4C841.59,-326.4 693.042,-326.4 693.042,-326.4 687.042,-326.4 681.042,-320.4 681.042,-314.4 681.042,-314.4 681.042,-302.4 681.042,-302.4 681.042,-296.4 687.042,-290.4 693.042,-290.4 693.042,-290.4 841.59,-290.4 841.59,-290.4 847.59,-290.4 853.59,-296.4 853.59,-302.4 853.59,-302.4 853.59,-314.4 853.59,-314.4 853.59,-320.4 847.59,-326.4 841.59,-326.4"/>
<text text-anchor="middle" x="767.316" y="-304.2" font-family="Times,serif" font-size="14.00">OdometryCorrectionThread</text>
</a>
</g>
</g>
<!-- start_CaptureTheFlag_OdometryCorrectionThread&#45;&gt;CaptureTheFlag_smCourseTraversalOdometryCorrectionThread_OdometryCorrectionThread -->
<g id="edge6" class="edge"><title>start_CaptureTheFlag_OdometryCorrectionThread&#45;&gt;CaptureTheFlag_smCourseTraversalOdometryCorrectionThread_OdometryCorrectionThread</title>
<g id="a_edge6"><a xlink:title="start to OdometryCorrectionThread.OdometryCorrectionThread">
<path fill="none" stroke="black" d="M767.316,-389.958C767.316,-378.923 767.316,-355.362 767.316,-336.556"/>
<polygon fill="black" stroke="black" points="770.816,-336.436 767.316,-326.436 763.816,-336.436 770.816,-336.436"/>
</a>
</g>
</g>
<!-- CaptureTheFlag_smCourseTraversalOdometryCorrectionThread_OdometryCorrectionThread&#45;&gt;CaptureTheFlag_smCourseTraversalOdometryCorrectionThread_OdometryCorrectionThread -->
<g id="edge7" class="edge"><title>CaptureTheFlag_smCourseTraversalOdometryCorrectionThread_OdometryCorrectionThread&#45;&gt;CaptureTheFlag_smCourseTraversalOdometryCorrectionThread_OdometryCorrectionThread</title>
<g id="a_edge7"><a xlink:title="From OdometryCorrectionThread.OdometryCorrectionThread to OdometryCorrectionThread.OdometryCorrectionThread on lineIsDetected&#13;Guard: &#160;[isLocalizing == false]&#13;Transition Action:
 &#160;&#160;&#160;&#160;odo.setPos();">
<path fill="none" stroke="black" d="M853.507,-315.585C864.33,-314.318 871.453,-311.923 871.453,-308.4 871.453,-306.143 868.53,-304.349 863.583,-303.018"/>
<polygon fill="black" stroke="black" points="863.967,-299.531 853.507,-301.215 862.734,-306.422 863.967,-299.531"/>
</a>
</g>
<text text-anchor="middle" x="1019.69" y="-304.2" font-family="Times,serif" font-size="14.00">lineIsDetected [isLocalizing == false] / odo.setPos();</text>
</g>
<!-- start_CaptureTheFlag_OdometryDisplayThread -->
<g id="node8" class="node"><title>start_CaptureTheFlag_OdometryDisplayThread</title>
<g id="a_node8"><a xlink:title="Class CaptureTheFlag, SM sm, State OdometryDisplayThread.start">
<ellipse fill="black" stroke="black" cx="585.316" cy="-397.2" rx="7.2" ry="7.2"/>
</a>
</g>
</g>
<!-- CaptureTheFlag_smCourseTraversalOdometryDisplayThread_OdometryDisplayThread -->
<g id="node10" class="node"><title>CaptureTheFlag_smCourseTraversalOdometryDisplayThread_OdometryDisplayThread</title>
<g id="a_node10"><a xlink:title="Class CaptureTheFlag, SM sm, State OdometryDisplayThread.OdometryDisplayThread">
<path fill="none" stroke="black" d="M651.269,-326.4C651.269,-326.4 519.364,-326.4 519.364,-326.4 513.364,-326.4 507.364,-320.4 507.364,-314.4 507.364,-314.4 507.364,-302.4 507.364,-302.4 507.364,-296.4 513.364,-290.4 519.364,-290.4 519.364,-290.4 651.269,-290.4 651.269,-290.4 657.269,-290.4 663.269,-296.4 663.269,-302.4 663.269,-302.4 663.269,-314.4 663.269,-314.4 663.269,-320.4 657.269,-326.4 651.269,-326.4"/>
<text text-anchor="middle" x="585.316" y="-304.2" font-family="Times,serif" font-size="14.00">OdometryDisplayThread</text>
</a>
</g>
</g>
<!-- start_CaptureTheFlag_OdometryDisplayThread&#45;&gt;CaptureTheFlag_smCourseTraversalOdometryDisplayThread_OdometryDisplayThread -->
<g id="edge8" class="edge"><title>start_CaptureTheFlag_OdometryDisplayThread&#45;&gt;CaptureTheFlag_smCourseTraversalOdometryDisplayThread_OdometryDisplayThread</title>
<g id="a_edge8"><a xlink:title="start to OdometryDisplayThread.OdometryDisplayThread">
<path fill="none" stroke="black" d="M585.316,-389.958C585.316,-378.923 585.316,-355.362 585.316,-336.556"/>
<polygon fill="black" stroke="black" points="588.816,-336.436 585.316,-326.436 581.816,-336.436 588.816,-336.436"/>
</a>
</g>
</g>
<!-- dummyNode1_OdometryDisplayThread_OdometryDisplayThread -->
<g id="node9" class="node"><title>dummyNode1_OdometryDisplayThread_OdometryDisplayThread</title>
<ellipse fill="black" stroke="black" cx="585.316" cy="-219.6" rx="0.18" ry="0.18"/>
</g>
<!-- dummyNode1_OdometryDisplayThread_OdometryDisplayThread&#45;&gt;CaptureTheFlag_smCourseTraversalOdometryDisplayThread_OdometryDisplayThread -->
<g id="edge10" class="edge"><title>dummyNode1_OdometryDisplayThread_OdometryDisplayThread:w&#45;&gt;CaptureTheFlag_smCourseTraversalOdometryDisplayThread_OdometryDisplayThread</title>
<g id="a_edge10"><a xlink:title="From OdometryDisplayThread.OdometryDisplayThread to OdometryDisplayThread.OdometryDisplayThread on clock&#13;Transition Action:
 &#160;&#160;&#160;&#160;updateDisp(odo.getPos)">
<path fill="none" stroke="black" d="M584.316,-219.6C559.689,-219.6 566.543,-254.567 574.952,-280.367"/>
<polygon fill="black" stroke="black" points="571.729,-281.753 578.314,-290.054 578.342,-279.459 571.729,-281.753"/>
</a>
</g>
</g>
<!-- CaptureTheFlag_smCourseTraversalOdometryDisplayThread_OdometryDisplayThread&#45;&gt;dummyNode1_OdometryDisplayThread_OdometryDisplayThread -->
<g id="edge9" class="edge"><title>CaptureTheFlag_smCourseTraversalOdometryDisplayThread_OdometryDisplayThread&#45;&gt;dummyNode1_OdometryDisplayThread_OdometryDisplayThread:e</title>
<g id="a_edge9"><a xlink:title="From OdometryDisplayThread.OdometryDisplayThread to OdometryDisplayThread.OdometryDisplayThread on clock&#13;Transition Action:
 &#160;&#160;&#160;&#160;updateDisp(odo.getPos)">
<path fill="none" stroke="black" d="M592.319,-290.054C601.715,-264.466 614.213,-219.6 586.316,-219.6"/>
</a>
</g>
<text text-anchor="middle" x="634.89" y="-259.8" font-family="Times,serif" font-size="14.00">clock / {...}</text>
</g>
<!-- start_CaptureTheFlag_ControllerThread -->
<g id="node11" class="node"><title>start_CaptureTheFlag_ControllerThread</title>
<g id="a_node11"><a xlink:title="Class CaptureTheFlag, SM sm, State OdometryDisplayThread.ControllerThread.start">
<ellipse fill="black" stroke="black" cx="1732.32" cy="-397.2" rx="7.2" ry="7.2"/>
</a>
</g>
</g>
<!-- CaptureTheFlag_smCourseTraversalOdometryDisplayThreadControllerThread_UltrasonicLocalization -->
<g id="node12" class="node"><title>CaptureTheFlag_smCourseTraversalOdometryDisplayThreadControllerThread_UltrasonicLocalization</title>
<g id="a_node12"><a xlink:title="Class CaptureTheFlag, SM sm, State OdometryDisplayThread.ControllerThread.UltrasonicLocalization&#13;Entry:
 &#160;&#160;performUltrasonicLocalization();">
<path fill="none" stroke="black" d="M1792.6,-326.4C1792.6,-326.4 1672.03,-326.4 1672.03,-326.4 1666.03,-326.4 1660.03,-320.4 1660.03,-314.4 1660.03,-314.4 1660.03,-302.4 1660.03,-302.4 1660.03,-296.4 1666.03,-290.4 1672.03,-290.4 1672.03,-290.4 1792.6,-290.4 1792.6,-290.4 1798.6,-290.4 1804.6,-296.4 1804.6,-302.4 1804.6,-302.4 1804.6,-314.4 1804.6,-314.4 1804.6,-320.4 1798.6,-326.4 1792.6,-326.4"/>
<text text-anchor="middle" x="1732.32" y="-304.2" font-family="Times,serif" font-size="14.00">UltrasonicLocalization</text>
</a>
</g>
</g>
<!-- start_CaptureTheFlag_ControllerThread&#45;&gt;CaptureTheFlag_smCourseTraversalOdometryDisplayThreadControllerThread_UltrasonicLocalization -->
<g id="edge11" class="edge"><title>start_CaptureTheFlag_ControllerThread&#45;&gt;CaptureTheFlag_smCourseTraversalOdometryDisplayThreadControllerThread_UltrasonicLocalization</title>
<g id="a_edge11"><a xlink:title="start to OdometryDisplayThread.ControllerThread.UltrasonicLocalization">
<path fill="none" stroke="black" d="M1732.32,-389.958C1732.32,-378.923 1732.32,-355.362 1732.32,-336.556"/>
<polygon fill="black" stroke="black" points="1735.82,-336.436 1732.32,-326.436 1728.82,-336.436 1735.82,-336.436"/>
</a>
</g>
</g>
<!-- CaptureTheFlag_smCourseTraversalOdometryDisplayThreadControllerThread_LightLocalization -->
<g id="node13" class="node"><title>CaptureTheFlag_smCourseTraversalOdometryDisplayThreadControllerThread_LightLocalization</title>
<g id="a_node13"><a xlink:title="Class CaptureTheFlag, SM sm, State OdometryDisplayThread.ControllerThread.LightLocalization&#13;Entry:
 &#160;&#160;performUltrasonicLocalization();">
<path fill="none" stroke="black" d="M1778.62,-237.6C1778.62,-237.6 1686.01,-237.6 1686.01,-237.6 1680.01,-237.6 1674.01,-231.6 1674.01,-225.6 1674.01,-225.6 1674.01,-213.6 1674.01,-213.6 1674.01,-207.6 1680.01,-201.6 1686.01,-201.6 1686.01,-201.6 1778.62,-201.6 1778.62,-201.6 1784.62,-201.6 1790.62,-207.6 1790.62,-213.6 1790.62,-213.6 1790.62,-225.6 1790.62,-225.6 1790.62,-231.6 1784.62,-237.6 1778.62,-237.6"/>
<text text-anchor="middle" x="1732.32" y="-215.4" font-family="Times,serif" font-size="14.00">LightLocalization</text>
</a>
</g>
</g>
<!-- CaptureTheFlag_smCourseTraversalOdometryDisplayThreadControllerThread_UltrasonicLocalization&#45;&gt;CaptureTheFlag_smCourseTraversalOdometryDisplayThreadControllerThread_LightLocalization -->
<g id="edge12" class="edge"><title>CaptureTheFlag_smCourseTraversalOdometryDisplayThreadControllerThread_UltrasonicLocalization&#45;&gt;CaptureTheFlag_smCourseTraversalOdometryDisplayThreadControllerThread_LightLocalization</title>
<g id="a_edge12"><a xlink:title="From OdometryDisplayThread.ControllerThread.UltrasonicLocalization to OdometryDisplayThread.ControllerThread.LightLocalization on usLocalizationIsOver">
<path fill="none" stroke="black" d="M1732.32,-290.251C1732.32,-278.125 1732.32,-261.619 1732.32,-247.719"/>
<polygon fill="black" stroke="black" points="1735.82,-247.713 1732.32,-237.713 1728.82,-247.713 1735.82,-247.713"/>
</a>
</g>
<text text-anchor="middle" x="1792.57" y="-259.8" font-family="Times,serif" font-size="14.00">usLocalizationIsOver</text>
</g>
<!-- CaptureTheFlag_smCourseTraversalOdometryDisplayThreadControllerThread_Navigating -->
<g id="node14" class="node"><title>CaptureTheFlag_smCourseTraversalOdometryDisplayThreadControllerThread_Navigating</title>
<g id="a_node14"><a xlink:title="Class CaptureTheFlag, SM sm, State OdometryDisplayThread.ControllerThread.Navigating">
<path fill="none" stroke="black" d="M1759.52,-148.8C1759.52,-148.8 1705.11,-148.8 1705.11,-148.8 1699.11,-148.8 1693.11,-142.8 1693.11,-136.8 1693.11,-136.8 1693.11,-124.8 1693.11,-124.8 1693.11,-118.8 1699.11,-112.8 1705.11,-112.8 1705.11,-112.8 1759.52,-112.8 1759.52,-112.8 1765.52,-112.8 1771.52,-118.8 1771.52,-124.8 1771.52,-124.8 1771.52,-136.8 1771.52,-136.8 1771.52,-142.8 1765.52,-148.8 1759.52,-148.8"/>
<text text-anchor="middle" x="1732.32" y="-126.6" font-family="Times,serif" font-size="14.00">Navigating</text>
</a>
</g>
</g>
<!-- CaptureTheFlag_smCourseTraversalOdometryDisplayThreadControllerThread_LightLocalization&#45;&gt;CaptureTheFlag_smCourseTraversalOdometryDisplayThreadControllerThread_Navigating -->
<g id="edge13" class="edge"><title>CaptureTheFlag_smCourseTraversalOdometryDisplayThreadControllerThread_LightLocalization&#45;&gt;CaptureTheFlag_smCourseTraversalOdometryDisplayThreadControllerThread_Navigating</title>
<g id="a_edge13"><a xlink:title="From OdometryDisplayThread.ControllerThread.LightLocalization to OdometryDisplayThread.ControllerThread.Navigating on llLocalizationIsOver&#13;Transition Action:
 &#160;&#160;&#160;&#160;navToZipline();">
<path fill="none" stroke="black" d="M1732.32,-201.451C1732.32,-189.325 1732.32,-172.819 1732.32,-158.919"/>
<polygon fill="black" stroke="black" points="1735.82,-158.913 1732.32,-148.913 1728.82,-158.913 1735.82,-158.913"/>
</a>
</g>
<text text-anchor="middle" x="1840.39" y="-171" font-family="Times,serif" font-size="14.00">llLocalizationIsOver / navToZipline();</text>
</g>
<!-- CaptureTheFlag_smCourseTraversalOdometryDisplayThreadControllerThread_ZiplineTraversal -->
<g id="node15" class="node"><title>CaptureTheFlag_smCourseTraversalOdometryDisplayThreadControllerThread_ZiplineTraversal</title>
<g id="a_node15"><a xlink:title="Class CaptureTheFlag, SM sm, State OdometryDisplayThread.ControllerThread.ZiplineTraversal&#13;Entry:
 &#160;&#160;doZiplineTraversal();">
<path fill="none" stroke="black" d="M1346.11,-60C1346.11,-60 1260.52,-60 1260.52,-60 1254.52,-60 1248.52,-54 1248.52,-48 1248.52,-48 1248.52,-36 1248.52,-36 1248.52,-30 1254.52,-24 1260.52,-24 1260.52,-24 1346.11,-24 1346.11,-24 1352.11,-24 1358.11,-30 1358.11,-36 1358.11,-36 1358.11,-48 1358.11,-48 1358.11,-54 1352.11,-60 1346.11,-60"/>
<text text-anchor="middle" x="1303.32" y="-37.8" font-family="Times,serif" font-size="14.00">ZiplineTraversal</text>
</a>
</g>
</g>
<!-- CaptureTheFlag_smCourseTraversalOdometryDisplayThreadControllerThread_Navigating&#45;&gt;CaptureTheFlag_smCourseTraversalOdometryDisplayThreadControllerThread_ZiplineTraversal -->
<g id="edge16" class="edge"><title>CaptureTheFlag_smCourseTraversalOdometryDisplayThreadControllerThread_Navigating&#45;&gt;CaptureTheFlag_smCourseTraversalOdometryDisplayThreadControllerThread_ZiplineTraversal</title>
<g id="a_edge16"><a xlink:title="From OdometryDisplayThread.ControllerThread.Navigating to OdometryDisplayThread.ControllerThread.ZiplineTraversal on arrival&#13;Guard: &#160;[atZipline == true]">
<path fill="none" stroke="black" d="M1692.98,-130.213C1576.11,-131.03 1237.09,-130.295 1203.86,-94.8 1187.25,-77.0501 1210.51,-64.2909 1238.7,-55.8772"/>
<polygon fill="black" stroke="black" points="1239.7,-59.2333 1248.4,-53.1895 1237.83,-52.4876 1239.7,-59.2333"/>
</a>
</g>
<text text-anchor="middle" x="1276.54" y="-82.2" font-family="Times,serif" font-size="14.00">arrival [atZipline == true]</text>
</g>
<!-- CaptureTheFlag_smCourseTraversalOdometryDisplayThreadControllerThread_BlockDetection -->
<g id="node16" class="node"><title>CaptureTheFlag_smCourseTraversalOdometryDisplayThreadControllerThread_BlockDetection</title>
<g id="a_node16"><a xlink:title="Class CaptureTheFlag, SM sm, State OdometryDisplayThread.ControllerThread.BlockDetection">
<path fill="none" stroke="black" d="M2028.18,-60C2028.18,-60 1948.45,-60 1948.45,-60 1942.45,-60 1936.45,-54 1936.45,-48 1936.45,-48 1936.45,-36 1936.45,-36 1936.45,-30 1942.45,-24 1948.45,-24 1948.45,-24 2028.18,-24 2028.18,-24 2034.18,-24 2040.18,-30 2040.18,-36 2040.18,-36 2040.18,-48 2040.18,-48 2040.18,-54 2034.18,-60 2028.18,-60"/>
<text text-anchor="middle" x="1988.32" y="-37.8" font-family="Times,serif" font-size="14.00">BlockDetection</text>
</a>
</g>
</g>
<!-- CaptureTheFlag_smCourseTraversalOdometryDisplayThreadControllerThread_Navigating&#45;&gt;CaptureTheFlag_smCourseTraversalOdometryDisplayThreadControllerThread_BlockDetection -->
<g id="edge17" class="edge"><title>CaptureTheFlag_smCourseTraversalOdometryDisplayThreadControllerThread_Navigating&#45;&gt;CaptureTheFlag_smCourseTraversalOdometryDisplayThreadControllerThread_BlockDetection</title>
<g id="a_edge17"><a xlink:title="From OdometryDisplayThread.ControllerThread.Navigating to OdometryDisplayThread.ControllerThread.BlockDetection on arrival&#13;Guard: &#160;[completedZipline == true &amp;&amp; findBlock == true &amp;&amp; completedRiver == false]">
<path fill="none" stroke="black" d="M1725.46,-112.408C1722.31,-101.271 1720.84,-87.2282 1728.91,-78 1754.02,-49.2801 1857.75,-43.1765 1926.19,-42.3774"/>
<polygon fill="black" stroke="black" points="1926.47,-45.8754 1936.44,-42.294 1926.41,-38.8756 1926.47,-45.8754"/>
</a>
</g>
<text text-anchor="middle" x="1974.02" y="-82.2" font-family="Times,serif" font-size="14.00">arrival [completedZipline == true &amp;&amp; findBlock == true &amp;&amp; completedRiver == false]</text>
</g>
<!-- CaptureTheFlag_sm_End -->
<g id="node17" class="node"><title>CaptureTheFlag_sm_End</title>
<g id="a_node17"><a xlink:title="Class CaptureTheFlag, SM sm, State End">
<path fill="none" stroke="black" d="M2636.32,-60C2636.32,-60 2588.32,-60 2588.32,-60 2582.32,-60 2576.32,-54 2576.32,-48 2576.32,-48 2576.32,-36 2576.32,-36 2576.32,-30 2582.32,-24 2588.32,-24 2588.32,-24 2636.32,-24 2636.32,-24 2642.32,-24 2648.32,-30 2648.32,-36 2648.32,-36 2648.32,-48 2648.32,-48 2648.32,-54 2642.32,-60 2636.32,-60"/>
<text text-anchor="middle" x="2612.32" y="-37.8" font-family="Times,serif" font-size="14.00">End</text>
</a>
</g>
</g>
<!-- CaptureTheFlag_smCourseTraversalOdometryDisplayThreadControllerThread_Navigating&#45;&gt;CaptureTheFlag_sm_End -->
<g id="edge18" class="edge"><title>CaptureTheFlag_smCourseTraversalOdometryDisplayThreadControllerThread_Navigating&#45;&gt;CaptureTheFlag_sm_End</title>
<g id="a_edge18"><a xlink:title="From OdometryDisplayThread.ControllerThread.Navigating to End on arrival&#13;Guard: &#160;[completedRiver == true]">
<path fill="none" stroke="black" d="M1771.58,-129.383C1923.16,-127.6 2465.41,-119.534 2538.32,-94.8 2555.9,-88.8339 2573.05,-77.303 2586.41,-66.6324"/>
<polygon fill="black" stroke="black" points="2588.75,-69.2393 2594.2,-60.157 2584.27,-63.8548 2588.75,-69.2393"/>
</a>
</g>
<text text-anchor="middle" x="2660.98" y="-82.2" font-family="Times,serif" font-size="14.00">arrival [completedRiver == true]</text>
</g>
<!-- CaptureTheFlag_smCourseTraversalOdometryDisplayThreadControllerThread_ZiplineTraversal&#45;&gt;CaptureTheFlag_smCourseTraversalOdometryDisplayThreadControllerThread_Navigating -->
<g id="edge14" class="edge"><title>CaptureTheFlag_smCourseTraversalOdometryDisplayThreadControllerThread_ZiplineTraversal&#45;&gt;CaptureTheFlag_smCourseTraversalOdometryDisplayThreadControllerThread_Navigating</title>
<g id="a_edge14"><a xlink:title="From OdometryDisplayThread.ControllerThread.ZiplineTraversal to OdometryDisplayThread.ControllerThread.Navigating on completeZipline&#13;Guard: &#160;[completedZipline == true]&#13;Transition Action:
 &#160;&#160;&#160;&#160;navToBlock();">
<path fill="none" stroke="black" d="M1325.45,-60.187C1343.23,-73.6325 1367,-90.7144 1378.12,-94.8 1432.82,-114.898 1599.22,-124.381 1683.01,-127.98"/>
<polygon fill="black" stroke="black" points="1682.91,-131.479 1693.04,-128.4 1683.2,-124.485 1682.91,-131.479"/>
</a>
</g>
<text text-anchor="middle" x="1548.91" y="-82.2" font-family="Times,serif" font-size="14.00">completeZipline [completedZipline == true] / navToBlock();</text>
</g>
<!-- CaptureTheFlag_smCourseTraversalOdometryDisplayThreadControllerThread_BlockDetection&#45;&gt;CaptureTheFlag_smCourseTraversalOdometryDisplayThreadControllerThread_Navigating -->
<g id="edge15" class="edge"><title>CaptureTheFlag_smCourseTraversalOdometryDisplayThreadControllerThread_BlockDetection&#45;&gt;CaptureTheFlag_smCourseTraversalOdometryDisplayThreadControllerThread_Navigating</title>
<g id="a_edge15"><a xlink:title="From OdometryDisplayThread.ControllerThread.BlockDetection to OdometryDisplayThread.ControllerThread.Navigating on blockFound&#13;Guard: &#160;[isCorrectColor() == true]&#13;Transition Action:
 &#160;&#160;&#160;&#160;navToRiver();">
<path fill="none" stroke="black" d="M2040.19,-43.1939C2101.84,-44.6563 2199.29,-51.2757 2222.32,-78 2227.19,-83.6568 2227.4,-89.3354 2222.32,-94.8 2192.73,-126.571 1900.26,-129.945 1781.77,-129.994"/>
<polygon fill="black" stroke="black" points="1781.53,-126.494 1771.53,-129.991 1781.53,-133.494 1781.53,-126.494"/>
</a>
</g>
<text text-anchor="middle" x="2380.2" y="-82.2" font-family="Times,serif" font-size="14.00">blockFound [isCorrectColor() == true] / navToRiver();</text>
</g>
</g>
</svg>
