<?xml version="1.0" encoding="UTF-8" standalone="no"?>
<!DOCTYPE svg PUBLIC "-//W3C//DTD SVG 1.1//EN"
 "http://www.w3.org/Graphics/SVG/1.1/DTD/svg11.dtd">
<!-- Generated by graphviz version 2.38.0 (20140413.2041)
 -->
<!-- Title: model Pages: 1 -->
<svg width="1975pt" height="532pt"
 viewBox="0.00 0.00 2256.64 608.20" xmlns="http://www.w3.org/2000/svg" xmlns:xlink="http://www.w3.org/1999/xlink">
<g id="graph0" class="graph" transform="scale(0.875 0.875) rotate(0) translate(4 604.2)">
<title>model</title>
<polygon fill="white" stroke="none" points="-4,4 -4,-604.2 2252.64,-604.2 2252.64,4 -4,4"/>
<g id="clust1" class="cluster"><title>clusterCaptureTheFlag_sm_CourseTraversal</title>
<path fill="none" stroke="black" d="M238.316,-8C238.316,-8 2052.32,-8 2052.32,-8 2058.32,-8 2064.32,-14 2064.32,-20 2064.32,-20 2064.32,-458 2064.32,-458 2064.32,-464 2058.32,-470 2052.32,-470 2052.32,-470 238.316,-470 238.316,-470 232.316,-470 226.316,-464 226.316,-458 226.316,-458 226.316,-20 226.316,-20 226.316,-14 232.316,-8 238.316,-8"/>
<text text-anchor="middle" x="1145.32" y="-453.4" font-family="Times,serif" font-size="14.00">CourseTraversal</text>
</g>
<g id="clust2" class="cluster"><title>clusterCaptureTheFlag_smCourseTraversalOdometryDisplayThread_Controller</title>
<path fill="none" stroke="black" d="M683.316,-16C683.316,-16 2044.32,-16 2044.32,-16 2050.32,-16 2056.32,-22 2056.32,-28 2056.32,-28 2056.32,-425.2 2056.32,-425.2 2056.32,-431.2 2050.32,-437.2 2044.32,-437.2 2044.32,-437.2 683.316,-437.2 683.316,-437.2 677.316,-437.2 671.316,-431.2 671.316,-425.2 671.316,-425.2 671.316,-28 671.316,-28 671.316,-22 677.316,-16 683.316,-16"/>
<text text-anchor="middle" x="1363.82" y="-420.6" font-family="Times,serif" font-size="14.00">Controller</text>
</g>
<!-- start_CaptureTheFlag_sm -->
<g id="node1" class="node"><title>start_CaptureTheFlag_sm</title>
<g id="a_node1"><a xlink:title="Class CaptureTheFlag, SM sm, State start">
<ellipse fill="black" stroke="black" cx="45.3163" cy="-593" rx="7.2" ry="7.2"/>
</a>
</g>
</g>
<!-- CaptureTheFlag_sm_MainThread -->
<g id="node2" class="node"><title>CaptureTheFlag_sm_MainThread</title>
<g id="a_node2"><a xlink:title="Class CaptureTheFlag, SM sm, State MainThread">
<path fill="none" stroke="black" d="M76.0087,-548.8C76.0087,-548.8 14.6239,-548.8 14.6239,-548.8 8.62388,-548.8 2.62388,-542.8 2.62388,-536.8 2.62388,-536.8 2.62388,-524.8 2.62388,-524.8 2.62388,-518.8 8.62388,-512.8 14.6239,-512.8 14.6239,-512.8 76.0087,-512.8 76.0087,-512.8 82.0087,-512.8 88.0087,-518.8 88.0087,-524.8 88.0087,-524.8 88.0087,-536.8 88.0087,-536.8 88.0087,-542.8 82.0087,-548.8 76.0087,-548.8"/>
<text text-anchor="middle" x="45.3163" y="-526.6" font-family="Times,serif" font-size="14.00">MainThread</text>
</a>
</g>
</g>
<!-- start_CaptureTheFlag_sm&#45;&gt;CaptureTheFlag_sm_MainThread -->
<g id="edge1" class="edge"><title>start_CaptureTheFlag_sm&#45;&gt;CaptureTheFlag_sm_MainThread</title>
<g id="a_edge1"><a xlink:title="start to MainThread">
<path fill="none" stroke="black" d="M45.3163,-585.558C45.3163,-579.187 45.3163,-568.997 45.3163,-559.193"/>
<polygon fill="black" stroke="black" points="48.8164,-558.905 45.3163,-548.905 41.8164,-558.905 48.8164,-558.905"/>
</a>
</g>
</g>
<!-- CaptureTheFlag_sm_WifiReceival -->
<g id="node3" class="node"><title>CaptureTheFlag_sm_WifiReceival</title>
<g id="a_node3"><a xlink:title="Class CaptureTheFlag, SM sm, State WifiReceival&#13;Entry:
 &#160;&#160;intializeParameters(Map data);">
<path fill="none" stroke="black" d="M78.4496,-415.2C78.4496,-415.2 12.183,-415.2 12.183,-415.2 6.18296,-415.2 0.182958,-409.2 0.182958,-403.2 0.182958,-403.2 0.182958,-391.2 0.182958,-391.2 0.182958,-385.2 6.18296,-379.2 12.183,-379.2 12.183,-379.2 78.4496,-379.2 78.4496,-379.2 84.4496,-379.2 90.4496,-385.2 90.4496,-391.2 90.4496,-391.2 90.4496,-403.2 90.4496,-403.2 90.4496,-409.2 84.4496,-415.2 78.4496,-415.2"/>
<text text-anchor="middle" x="45.3163" y="-393" font-family="Times,serif" font-size="14.00">WifiReceival</text>
</a>
</g>
</g>
<!-- CaptureTheFlag_sm_MainThread&#45;&gt;CaptureTheFlag_sm_WifiReceival -->
<g id="edge2" class="edge"><title>CaptureTheFlag_sm_MainThread&#45;&gt;CaptureTheFlag_sm_WifiReceival</title>
<g id="a_edge2"><a xlink:title="From MainThread to WifiReceival on enterMapParamters">
<path fill="none" stroke="black" d="M45.3163,-512.596C45.3163,-490.429 45.3163,-451.637 45.3163,-425.442"/>
<polygon fill="black" stroke="black" points="48.8164,-425.409 45.3163,-415.409 41.8164,-425.409 48.8164,-425.409"/>
</a>
</g>
<text text-anchor="middle" x="100.123" y="-482.2" font-family="Times,serif" font-size="14.00">enterMapParamters</text>
</g>
<!-- CaptureTheFlag_smCourseTraversalOdometerThread_OdometerThread -->
<g id="node5" class="node"><title>CaptureTheFlag_smCourseTraversalOdometerThread_OdometerThread</title>
<g id="a_node5"><a xlink:title="Class CaptureTheFlag, SM sm, State OdometerThread.OdometerThread">
<path fill="none" stroke="black" d="M333.937,-326.4C333.937,-326.4 246.696,-326.4 246.696,-326.4 240.696,-326.4 234.696,-320.4 234.696,-314.4 234.696,-314.4 234.696,-302.4 234.696,-302.4 234.696,-296.4 240.696,-290.4 246.696,-290.4 246.696,-290.4 333.937,-290.4 333.937,-290.4 339.937,-290.4 345.937,-296.4 345.937,-302.4 345.937,-302.4 345.937,-314.4 345.937,-314.4 345.937,-320.4 339.937,-326.4 333.937,-326.4"/>
<text text-anchor="middle" x="290.316" y="-304.2" font-family="Times,serif" font-size="14.00">OdometerThread</text>
</a>
</g>
</g>
<!-- CaptureTheFlag_sm_WifiReceival&#45;&gt;CaptureTheFlag_smCourseTraversalOdometerThread_OdometerThread -->
<g id="edge3" class="edge"><title>CaptureTheFlag_sm_WifiReceival&#45;&gt;CaptureTheFlag_smCourseTraversalOdometerThread_OdometerThread</title>
<g id="a_edge3"><a xlink:title="From WifiReceival to CourseTraversal on buttonPressed&#13;Guard: &#160;[centerButton == buttonPressed()]&#13;Transition Action:
 &#160;&#160;&#160;&#160;startThreads();">
<path fill="none" stroke="black" d="M38.8352,-378.819C35.9068,-367.687 34.6653,-353.645 42.6959,-344.4 65.8026,-317.798 159.155,-310.859 224.386,-309.343"/>
<polygon fill="black" stroke="black" points="216.728,-313.651 226.316,-309.144 216.01,-306.688 216.728,-313.651"/>
</a>
</g>
<text text-anchor="middle" x="227.126" y="-348.6" font-family="Times,serif" font-size="14.00">buttonPressed [centerButton == buttonPressed()] / startThreads();</text>
</g>
<!-- start_CaptureTheFlag_OdometerThread -->
<g id="node4" class="node"><title>start_CaptureTheFlag_OdometerThread</title>
<g id="a_node4"><a xlink:title="Class CaptureTheFlag, SM sm, State OdometerThread.start">
<ellipse fill="black" stroke="black" cx="419.316" cy="-397.2" rx="7.2" ry="7.2"/>
</a>
</g>
</g>
<!-- start_CaptureTheFlag_OdometerThread&#45;&gt;CaptureTheFlag_smCourseTraversalOdometerThread_OdometerThread -->
<g id="edge4" class="edge"><title>start_CaptureTheFlag_OdometerThread&#45;&gt;CaptureTheFlag_smCourseTraversalOdometerThread_OdometerThread</title>
<g id="a_edge4"><a xlink:title="start to OdometerThread.OdometerThread">
<path fill="none" stroke="black" d="M420.75,-389.936C422.798,-379.261 425.206,-357.435 414.316,-344.4 399.89,-327.131 377.655,-318.03 355.975,-313.343"/>
<polygon fill="black" stroke="black" points="356.558,-309.891 346.084,-311.487 355.267,-316.771 356.558,-309.891"/>
</a>
</g>
</g>
<!-- CaptureTheFlag_smCourseTraversalOdometerThread_OdometerThread&#45;&gt;CaptureTheFlag_smCourseTraversalOdometerThread_OdometerThread -->
<g id="edge5" class="edge"><title>CaptureTheFlag_smCourseTraversalOdometerThread_OdometerThread&#45;&gt;CaptureTheFlag_smCourseTraversalOdometerThread_OdometerThread</title>
<g id="a_edge5"><a xlink:title="From OdometerThread.OdometerThread to OdometerThread.OdometerThread on clock&#13;Transition Action:
 &#160;&#160;&#160;&#160;doOdometry();">
<path fill="none" stroke="black" d="M346.001,-316.255C356.618,-315.315 364.126,-312.697 364.126,-308.4 364.126,-305.647 361.045,-303.583 356.039,-302.208"/>
<polygon fill="black" stroke="black" points="356.438,-298.727 346.001,-300.545 355.294,-305.633 356.438,-298.727"/>
</a>
</g>
<text text-anchor="middle" x="426.719" y="-304.2" font-family="Times,serif" font-size="14.00">clock / doOdometry();</text>
</g>
<!-- start_CaptureTheFlag_OdometryDisplayThread -->
<g id="node6" class="node"><title>start_CaptureTheFlag_OdometryDisplayThread</title>
<g id="a_node6"><a xlink:title="Class CaptureTheFlag, SM sm, State OdometryDisplayThread.start">
<ellipse fill="black" stroke="black" cx="585.316" cy="-397.2" rx="7.2" ry="7.2"/>
</a>
</g>
</g>
<!-- CaptureTheFlag_smCourseTraversalOdometryDisplayThread_OdometryDisplayThread -->
<g id="node8" class="node"><title>CaptureTheFlag_smCourseTraversalOdometryDisplayThread_OdometryDisplayThread</title>
<g id="a_node8"><a xlink:title="Class CaptureTheFlag, SM sm, State OdometryDisplayThread.OdometryDisplayThread">
<path fill="none" stroke="black" d="M651.269,-326.4C651.269,-326.4 519.364,-326.4 519.364,-326.4 513.364,-326.4 507.364,-320.4 507.364,-314.4 507.364,-314.4 507.364,-302.4 507.364,-302.4 507.364,-296.4 513.364,-290.4 519.364,-290.4 519.364,-290.4 651.269,-290.4 651.269,-290.4 657.269,-290.4 663.269,-296.4 663.269,-302.4 663.269,-302.4 663.269,-314.4 663.269,-314.4 663.269,-320.4 657.269,-326.4 651.269,-326.4"/>
<text text-anchor="middle" x="585.316" y="-304.2" font-family="Times,serif" font-size="14.00">OdometryDisplayThread</text>
</a>
</g>
</g>
<!-- start_CaptureTheFlag_OdometryDisplayThread&#45;&gt;CaptureTheFlag_smCourseTraversalOdometryDisplayThread_OdometryDisplayThread -->
<g id="edge6" class="edge"><title>start_CaptureTheFlag_OdometryDisplayThread&#45;&gt;CaptureTheFlag_smCourseTraversalOdometryDisplayThread_OdometryDisplayThread</title>
<g id="a_edge6"><a xlink:title="start to OdometryDisplayThread.OdometryDisplayThread">
<path fill="none" stroke="black" d="M585.316,-389.958C585.316,-378.923 585.316,-355.362 585.316,-336.556"/>
<polygon fill="black" stroke="black" points="588.816,-336.436 585.316,-326.436 581.816,-336.436 588.816,-336.436"/>
</a>
</g>
</g>
<!-- dummyNode1_OdometryDisplayThread_OdometryDisplayThread -->
<g id="node7" class="node"><title>dummyNode1_OdometryDisplayThread_OdometryDisplayThread</title>
<ellipse fill="black" stroke="black" cx="522.316" cy="-219.6" rx="0.18" ry="0.18"/>
</g>
<!-- dummyNode1_OdometryDisplayThread_OdometryDisplayThread&#45;&gt;CaptureTheFlag_smCourseTraversalOdometryDisplayThread_OdometryDisplayThread -->
<g id="edge8" class="edge"><title>dummyNode1_OdometryDisplayThread_OdometryDisplayThread:w&#45;&gt;CaptureTheFlag_smCourseTraversalOdometryDisplayThread_OdometryDisplayThread</title>
<g id="a_edge8"><a xlink:title="From OdometryDisplayThread.OdometryDisplayThread to OdometryDisplayThread.OdometryDisplayThread on clock&#13;Transition Action:
 &#160;&#160;&#160;&#160;setDis(odo.pos)">
<path fill="none" stroke="black" d="M521.316,-219.6C497.582,-219.6 516.284,-252.564 529.316,-272.4 532.155,-276.721 535.731,-280.605 539.697,-284.073"/>
<polygon fill="black" stroke="black" points="537.651,-286.915 547.712,-290.234 541.917,-281.365 537.651,-286.915"/>
</a>
</g>
</g>
<!-- CaptureTheFlag_smCourseTraversalOdometryDisplayThread_OdometryDisplayThread&#45;&gt;dummyNode1_OdometryDisplayThread_OdometryDisplayThread -->
<g id="edge7" class="edge"><title>CaptureTheFlag_smCourseTraversalOdometryDisplayThread_OdometryDisplayThread&#45;&gt;dummyNode1_OdometryDisplayThread_OdometryDisplayThread:e</title>
<g id="a_edge7"><a xlink:title="From OdometryDisplayThread.OdometryDisplayThread to OdometryDisplayThread.OdometryDisplayThread on clock&#13;Transition Action:
 &#160;&#160;&#160;&#160;setDis(odo.pos)">
<path fill="none" stroke="black" d="M555.435,-290.091C548.862,-285.101 542.487,-279.151 537.849,-272.4 524.065,-252.34 547.656,-219.6 523.316,-219.6"/>
</a>
</g>
<text text-anchor="middle" x="603.05" y="-259.8" font-family="Times,serif" font-size="14.00">clock / setDis(odo.pos)</text>
</g>
<!-- start_CaptureTheFlag_Controller -->
<g id="node9" class="node"><title>start_CaptureTheFlag_Controller</title>
<g id="a_node9"><a xlink:title="Class CaptureTheFlag, SM sm, State OdometryDisplayThread.Controller.start">
<ellipse fill="black" stroke="black" cx="1228.32" cy="-397.2" rx="7.2" ry="7.2"/>
</a>
</g>
</g>
<!-- CaptureTheFlag_smCourseTraversalOdometryDisplayThreadController_UltrasonicLocalization -->
<g id="node10" class="node"><title>CaptureTheFlag_smCourseTraversalOdometryDisplayThreadController_UltrasonicLocalization</title>
<g id="a_node10"><a xlink:title="Class CaptureTheFlag, SM sm, State OdometryDisplayThread.Controller.UltrasonicLocalization&#13;Entry:
 &#160;&#160;performUltrasonicLocalization();">
<path fill="none" stroke="black" d="M1288.6,-326.4C1288.6,-326.4 1168.03,-326.4 1168.03,-326.4 1162.03,-326.4 1156.03,-320.4 1156.03,-314.4 1156.03,-314.4 1156.03,-302.4 1156.03,-302.4 1156.03,-296.4 1162.03,-290.4 1168.03,-290.4 1168.03,-290.4 1288.6,-290.4 1288.6,-290.4 1294.6,-290.4 1300.6,-296.4 1300.6,-302.4 1300.6,-302.4 1300.6,-314.4 1300.6,-314.4 1300.6,-320.4 1294.6,-326.4 1288.6,-326.4"/>
<text text-anchor="middle" x="1228.32" y="-304.2" font-family="Times,serif" font-size="14.00">UltrasonicLocalization</text>
</a>
</g>
</g>
<!-- start_CaptureTheFlag_Controller&#45;&gt;CaptureTheFlag_smCourseTraversalOdometryDisplayThreadController_UltrasonicLocalization -->
<g id="edge9" class="edge"><title>start_CaptureTheFlag_Controller&#45;&gt;CaptureTheFlag_smCourseTraversalOdometryDisplayThreadController_UltrasonicLocalization</title>
<g id="a_edge9"><a xlink:title="start to OdometryDisplayThread.Controller.UltrasonicLocalization">
<path fill="none" stroke="black" d="M1228.32,-389.958C1228.32,-378.923 1228.32,-355.362 1228.32,-336.556"/>
<polygon fill="black" stroke="black" points="1231.82,-336.436 1228.32,-326.436 1224.82,-336.436 1231.82,-336.436"/>
</a>
</g>
</g>
<!-- CaptureTheFlag_smCourseTraversalOdometryDisplayThreadController_LightLocalization -->
<g id="node11" class="node"><title>CaptureTheFlag_smCourseTraversalOdometryDisplayThreadController_LightLocalization</title>
<g id="a_node11"><a xlink:title="Class CaptureTheFlag, SM sm, State OdometryDisplayThread.Controller.LightLocalization&#13;Entry:
 &#160;&#160;performUltrasonicLocalization();">
<path fill="none" stroke="black" d="M1274.62,-237.6C1274.62,-237.6 1182.01,-237.6 1182.01,-237.6 1176.01,-237.6 1170.01,-231.6 1170.01,-225.6 1170.01,-225.6 1170.01,-213.6 1170.01,-213.6 1170.01,-207.6 1176.01,-201.6 1182.01,-201.6 1182.01,-201.6 1274.62,-201.6 1274.62,-201.6 1280.62,-201.6 1286.62,-207.6 1286.62,-213.6 1286.62,-213.6 1286.62,-225.6 1286.62,-225.6 1286.62,-231.6 1280.62,-237.6 1274.62,-237.6"/>
<text text-anchor="middle" x="1228.32" y="-215.4" font-family="Times,serif" font-size="14.00">LightLocalization</text>
</a>
</g>
</g>
<!-- CaptureTheFlag_smCourseTraversalOdometryDisplayThreadController_UltrasonicLocalization&#45;&gt;CaptureTheFlag_smCourseTraversalOdometryDisplayThreadController_LightLocalization -->
<g id="edge10" class="edge"><title>CaptureTheFlag_smCourseTraversalOdometryDisplayThreadController_UltrasonicLocalization&#45;&gt;CaptureTheFlag_smCourseTraversalOdometryDisplayThreadController_LightLocalization</title>
<g id="a_edge10"><a xlink:title="From OdometryDisplayThread.Controller.UltrasonicLocalization to OdometryDisplayThread.Controller.LightLocalization on usLocalizationIsOver">
<path fill="none" stroke="black" d="M1228.32,-290.251C1228.32,-278.125 1228.32,-261.619 1228.32,-247.719"/>
<polygon fill="black" stroke="black" points="1231.82,-247.713 1228.32,-237.713 1224.82,-247.713 1231.82,-247.713"/>
</a>
</g>
<text text-anchor="middle" x="1288.57" y="-259.8" font-family="Times,serif" font-size="14.00">usLocalizationIsOver</text>
</g>
<!-- CaptureTheFlag_smCourseTraversalOdometryDisplayThreadController_Navigating -->
<g id="node12" class="node"><title>CaptureTheFlag_smCourseTraversalOdometryDisplayThreadController_Navigating</title>
<g id="a_node12"><a xlink:title="Class CaptureTheFlag, SM sm, State OdometryDisplayThread.Controller.Navigating">
<path fill="none" stroke="black" d="M1255.52,-148.8C1255.52,-148.8 1201.11,-148.8 1201.11,-148.8 1195.11,-148.8 1189.11,-142.8 1189.11,-136.8 1189.11,-136.8 1189.11,-124.8 1189.11,-124.8 1189.11,-118.8 1195.11,-112.8 1201.11,-112.8 1201.11,-112.8 1255.52,-112.8 1255.52,-112.8 1261.52,-112.8 1267.52,-118.8 1267.52,-124.8 1267.52,-124.8 1267.52,-136.8 1267.52,-136.8 1267.52,-142.8 1261.52,-148.8 1255.52,-148.8"/>
<text text-anchor="middle" x="1228.32" y="-126.6" font-family="Times,serif" font-size="14.00">Navigating</text>
</a>
</g>
</g>
<!-- CaptureTheFlag_smCourseTraversalOdometryDisplayThreadController_LightLocalization&#45;&gt;CaptureTheFlag_smCourseTraversalOdometryDisplayThreadController_Navigating -->
<g id="edge11" class="edge"><title>CaptureTheFlag_smCourseTraversalOdometryDisplayThreadController_LightLocalization&#45;&gt;CaptureTheFlag_smCourseTraversalOdometryDisplayThreadController_Navigating</title>
<g id="a_edge11"><a xlink:title="From OdometryDisplayThread.Controller.LightLocalization to OdometryDisplayThread.Controller.Navigating on llLocalizationIsOver&#13;Transition Action:
 &#160;&#160;&#160;&#160;navToZipline();">
<path fill="none" stroke="black" d="M1228.32,-201.451C1228.32,-189.325 1228.32,-172.819 1228.32,-158.919"/>
<polygon fill="black" stroke="black" points="1231.82,-158.913 1228.32,-148.913 1224.82,-158.913 1231.82,-158.913"/>
</a>
</g>
<text text-anchor="middle" x="1336.39" y="-171" font-family="Times,serif" font-size="14.00">llLocalizationIsOver / navToZipline();</text>
</g>
<!-- CaptureTheFlag_smCourseTraversalOdometryDisplayThreadController_ZiplineTraversal -->
<g id="node13" class="node"><title>CaptureTheFlag_smCourseTraversalOdometryDisplayThreadController_ZiplineTraversal</title>
<g id="a_node13"><a xlink:title="Class CaptureTheFlag, SM sm, State OdometryDisplayThread.Controller.ZiplineTraversal&#13;Entry:
 &#160;&#160;doZiplineTraversal();">
<path fill="none" stroke="black" d="M842.108,-60C842.108,-60 756.524,-60 756.524,-60 750.524,-60 744.524,-54 744.524,-48 744.524,-48 744.524,-36 744.524,-36 744.524,-30 750.524,-24 756.524,-24 756.524,-24 842.108,-24 842.108,-24 848.108,-24 854.108,-30 854.108,-36 854.108,-36 854.108,-48 854.108,-48 854.108,-54 848.108,-60 842.108,-60"/>
<text text-anchor="middle" x="799.316" y="-37.8" font-family="Times,serif" font-size="14.00">ZiplineTraversal</text>
</a>
</g>
</g>
<!-- CaptureTheFlag_smCourseTraversalOdometryDisplayThreadController_Navigating&#45;&gt;CaptureTheFlag_smCourseTraversalOdometryDisplayThreadController_ZiplineTraversal -->
<g id="edge14" class="edge"><title>CaptureTheFlag_smCourseTraversalOdometryDisplayThreadController_Navigating&#45;&gt;CaptureTheFlag_smCourseTraversalOdometryDisplayThreadController_ZiplineTraversal</title>
<g id="a_edge14"><a xlink:title="From OdometryDisplayThread.Controller.Navigating to OdometryDisplayThread.Controller.ZiplineTraversal on arrival&#13;Guard: &#160;[atZipline == true]">
<path fill="none" stroke="black" d="M1188.98,-130.213C1072.11,-131.03 733.086,-130.295 699.864,-94.8 683.251,-77.0501 706.513,-64.2909 734.7,-55.8772"/>
<polygon fill="black" stroke="black" points="735.695,-59.2333 744.397,-53.1895 733.826,-52.4876 735.695,-59.2333"/>
</a>
</g>
<text text-anchor="middle" x="772.542" y="-82.2" font-family="Times,serif" font-size="14.00">arrival [atZipline == true]</text>
</g>
<!-- CaptureTheFlag_smCourseTraversalOdometryDisplayThreadController_BlockDetection -->
<g id="node14" class="node"><title>CaptureTheFlag_smCourseTraversalOdometryDisplayThreadController_BlockDetection</title>
<g id="a_node14"><a xlink:title="Class CaptureTheFlag, SM sm, State OdometryDisplayThread.Controller.BlockDetection">
<path fill="none" stroke="black" d="M1524.18,-60C1524.18,-60 1444.45,-60 1444.45,-60 1438.45,-60 1432.45,-54 1432.45,-48 1432.45,-48 1432.45,-36 1432.45,-36 1432.45,-30 1438.45,-24 1444.45,-24 1444.45,-24 1524.18,-24 1524.18,-24 1530.18,-24 1536.18,-30 1536.18,-36 1536.18,-36 1536.18,-48 1536.18,-48 1536.18,-54 1530.18,-60 1524.18,-60"/>
<text text-anchor="middle" x="1484.32" y="-37.8" font-family="Times,serif" font-size="14.00">BlockDetection</text>
</a>
</g>
</g>
<!-- CaptureTheFlag_smCourseTraversalOdometryDisplayThreadController_Navigating&#45;&gt;CaptureTheFlag_smCourseTraversalOdometryDisplayThreadController_BlockDetection -->
<g id="edge15" class="edge"><title>CaptureTheFlag_smCourseTraversalOdometryDisplayThreadController_Navigating&#45;&gt;CaptureTheFlag_smCourseTraversalOdometryDisplayThreadController_BlockDetection</title>
<g id="a_edge15"><a xlink:title="From OdometryDisplayThread.Controller.Navigating to OdometryDisplayThread.Controller.BlockDetection on arrival&#13;Guard: &#160;[completedZipline == true &amp;&amp; findBlock == true &amp;&amp; completedRiver == false]">
<path fill="none" stroke="black" d="M1221.46,-112.408C1218.31,-101.271 1216.84,-87.2282 1224.91,-78 1250.02,-49.2801 1353.75,-43.1765 1422.19,-42.3774"/>
<polygon fill="black" stroke="black" points="1422.47,-45.8754 1432.44,-42.294 1422.41,-38.8756 1422.47,-45.8754"/>
</a>
</g>
<text text-anchor="middle" x="1470.02" y="-82.2" font-family="Times,serif" font-size="14.00">arrival [completedZipline == true &amp;&amp; findBlock == true &amp;&amp; completedRiver == false]</text>
</g>
<!-- CaptureTheFlag_sm_End -->
<g id="node15" class="node"><title>CaptureTheFlag_sm_End</title>
<g id="a_node15"><a xlink:title="Class CaptureTheFlag, SM sm, State End">
<path fill="none" stroke="black" d="M2132.32,-60C2132.32,-60 2084.32,-60 2084.32,-60 2078.32,-60 2072.32,-54 2072.32,-48 2072.32,-48 2072.32,-36 2072.32,-36 2072.32,-30 2078.32,-24 2084.32,-24 2084.32,-24 2132.32,-24 2132.32,-24 2138.32,-24 2144.32,-30 2144.32,-36 2144.32,-36 2144.32,-48 2144.32,-48 2144.32,-54 2138.32,-60 2132.32,-60"/>
<text text-anchor="middle" x="2108.32" y="-37.8" font-family="Times,serif" font-size="14.00">End</text>
</a>
</g>
</g>
<!-- CaptureTheFlag_smCourseTraversalOdometryDisplayThreadController_Navigating&#45;&gt;CaptureTheFlag_sm_End -->
<g id="edge16" class="edge"><title>CaptureTheFlag_smCourseTraversalOdometryDisplayThreadController_Navigating&#45;&gt;CaptureTheFlag_sm_End</title>
<g id="a_edge16"><a xlink:title="From OdometryDisplayThread.Controller.Navigating to End on arrival&#13;Guard: &#160;[completedRiver == true]">
<path fill="none" stroke="black" d="M1267.58,-129.383C1419.16,-127.6 1961.41,-119.534 2034.32,-94.8 2051.9,-88.8339 2069.05,-77.303 2082.41,-66.6324"/>
<polygon fill="black" stroke="black" points="2084.75,-69.2393 2090.2,-60.157 2080.27,-63.8548 2084.75,-69.2393"/>
</a>
</g>
<text text-anchor="middle" x="2156.98" y="-82.2" font-family="Times,serif" font-size="14.00">arrival [completedRiver == true]</text>
</g>
<!-- CaptureTheFlag_smCourseTraversalOdometryDisplayThreadController_ZiplineTraversal&#45;&gt;CaptureTheFlag_smCourseTraversalOdometryDisplayThreadController_Navigating -->
<g id="edge12" class="edge"><title>CaptureTheFlag_smCourseTraversalOdometryDisplayThreadController_ZiplineTraversal&#45;&gt;CaptureTheFlag_smCourseTraversalOdometryDisplayThreadController_Navigating</title>
<g id="a_edge12"><a xlink:title="From OdometryDisplayThread.Controller.ZiplineTraversal to OdometryDisplayThread.Controller.Navigating on completeZipline&#13;Guard: &#160;[completedZipline == true]&#13;Transition Action:
 &#160;&#160;&#160;&#160;navToBlock();">
<path fill="none" stroke="black" d="M821.45,-60.187C839.229,-73.6325 862.999,-90.7144 874.12,-94.8 928.824,-114.898 1095.22,-124.381 1179.01,-127.98"/>
<polygon fill="black" stroke="black" points="1178.91,-131.479 1189.04,-128.4 1179.2,-124.485 1178.91,-131.479"/>
</a>
</g>
<text text-anchor="middle" x="1044.91" y="-82.2" font-family="Times,serif" font-size="14.00">completeZipline [completedZipline == true] / navToBlock();</text>
</g>
<!-- CaptureTheFlag_smCourseTraversalOdometryDisplayThreadController_BlockDetection&#45;&gt;CaptureTheFlag_smCourseTraversalOdometryDisplayThreadController_Navigating -->
<g id="edge13" class="edge"><title>CaptureTheFlag_smCourseTraversalOdometryDisplayThreadController_BlockDetection&#45;&gt;CaptureTheFlag_smCourseTraversalOdometryDisplayThreadController_Navigating</title>
<g id="a_edge13"><a xlink:title="From OdometryDisplayThread.Controller.BlockDetection to OdometryDisplayThread.Controller.Navigating on blockFound&#13;Guard: &#160;[isCorrectColor() == true]&#13;Transition Action:
 &#160;&#160;&#160;&#160;navToRiver();">
<path fill="none" stroke="black" d="M1536.19,-43.1939C1597.84,-44.6563 1695.29,-51.2757 1718.32,-78 1723.19,-83.6568 1723.4,-89.3354 1718.32,-94.8 1688.73,-126.571 1396.26,-129.945 1277.77,-129.994"/>
<polygon fill="black" stroke="black" points="1277.53,-126.494 1267.53,-129.991 1277.53,-133.494 1277.53,-126.494"/>
</a>
</g>
<text text-anchor="middle" x="1876.2" y="-82.2" font-family="Times,serif" font-size="14.00">blockFound [isCorrectColor() == true] / navToRiver();</text>
</g>
</g>
</svg>
